#!OML:ASF H:\ManfredETheater\Project 1\Capture day 1\Session 1\subject.ASF
:FULLY-SPECIFIED
:DEGREES
318
root 0.965397 15.8566 -22.5848 -161.786 0.0450378 -187.502
lowerback 12.4828 -2.39694 -5.05143
upperback -0.762898 -3.9657 0.413121
thorax -7.45325 -1.74211 4.01994
lowerneck -15.3817 0.968799 0.0668789
upperneck 3.1753 1.34541 1.31621
head 3.79085 0.8041 0.543799
rclavicle 4.6118e-014 1.19271e-015
rhumerus -54.5037 -4.99387 -81.815
rradius 56.973
rwrist -11.7142
rhand -26.1797 -4.03143
rfingers 7.12502
rthumb 0.372196 -34.0109
lclavicle 4.6118e-014 1.19271e-015
lhumerus -37.2223 -10.7084 96.4827
lradius 93.2459
lwrist 8.2778
lhand -17.0717 -5.50148
lfingers 7.12502
lthumb 9.16616 24.2793
rfemur -59.6561 -13.4028 13.3515
rtibia 97.1042
rfoot -15.3682 -6.29181
rtoes -38.2272
lfemur -8.20048 -4.52621 -30.2383
ltibia 48.5715
lfoot -28.4814 -2.85085
ltoes -24.7415
319
root 0.975175 15.7985 -22.769 -161.742 -0.0386788 -187.619
lowerback 12.945 -2.44941 -5.18459
upperback -0.67417 -4.09042 0.382279
thorax -7.60111 -1.79698 4.11058
lowerneck -15.6829 0.94928 0.0679687
upperneck 3.24515 1.3172 1.39155
head 3.87521 0.797649 0.57063
rclavicle 2.20651e-014 7.95139e-016
rhumerus -55.7488 -4.97656 -81.6935
rradius 57.4623
rwrist -12.5323
rhand -26.7611 -3.46649
rfingers 7.12502
rthumb -0.18934 -33.4462
lclavicle 2.20651e-014 7.95139e-016
lhumerus -35.482 -10.3135 96.1267
lradius 95.7349
lwrist 9.34877
lhand -17.4153 -5.39882
lfingers 7.12502
lthumb 8.83463 24.3962
rfemur -62.0518 -13.5737 13.6593
rtibia 97.4188
rfoot -15.8581 -6.63719
rtoes -38.3144
lfemur -7.1673 -4.62497 -30.2912
ltibia 47.8369
lfoot -28.4366 -3.03426
ltoes -25.163
320
root 0.986053 15.7436 -22.9626 -161.654 -0.135999 -187.716
lowerback 13.3727 -2.49294 -5.29464
upperback -0.612203 -4.19628 0.376628
thorax -7.75911 -1.84129 4.21178
lowerneck -15.9886 0.908489 0.0384967
upperneck 3.34345 1.26517 1.45717
head 3.97117 0.777969 0.598061
rclavicle 1.64991e-014 -3.18055e-015
rhumerus -57.2324 -4.80416 -81.6268
rradius 58.3244
rwrist -13.2732
rhand -27.4076 -2.80687
rfingers 7.12502
rthumb -0.81378 -32.7851
lclavicle 1.64991e-014 -3.18055e-015
lhumerus -33.6613 -9.9008 95.8353
lradius 98.3331
lwrist 10.3269
lhand -17.8105 -5.30107
lfingers 7.12502
lthumb 8.45326 24.5098
rfemur -64.3885 -13.6858 14.0159
rtibia 97.4417
rfoot -16.3195 -6.83573
rtoes -38.5903
lfemur -6.08418 -4.72434 -30.303
ltibia 46.9466
lfoot -28.3317 -3.27417
ltoes -25.5379
321
root 0.998145 15.6927 -23.1661 -161.502 -0.248957 -187.797
lowerback 13.7534 -2.53484 -5.38518
upperback -0.585385 -4.29161 0.397946
thorax -7.92809 -1.87833 4.32822
lowerneck -16.3869 0.862018 0.0253616
upperneck 3.86975 1.19853 1.52006
head 3.76338 0.75633 0.564242
rclavicle -3.12092e-014 7.95139e-015
rhumerus -58.9557 -4.47497 -81.6289
rradius 59.5868
rwrist -13.8785
rhand -28.0699 -2.05391
rfingers 7.12502
rthumb -1.45342 -32.0287
lclavicle -3.12092e-014 7.95139e-015
lhumerus -31.782 -9.48453 95.6107
lradius 101.03
lwrist 11.2086
lhand -18.2413 -5.22389
lfingers 7.12502
lthumb 8.03746 24.6033
rfemur -66.6613 -13.7471 14.4151
rtibia 97.1876
rfoot -16.7408 -6.90131
rtoes -38.9924
lfemur -4.97088 -4.83572 -30.2753
ltibia 45.8977
lfoot -28.148 -3.56517
ltoes -25.8964
322
root 1.01127 15.6463 -23.38 -161.277 -0.376339 -187.872
lowerback 14.0734 -2.58194 -5.4596
upperback -0.59553 -4.38458 0.444075
thorax -8.1016 -1.91203 4.46004
lowerneck -16.6663 0.810649 -0.0259138
upperneck 4.00169 1.13857 1.53054
head 3.84754 0.728659 0.573599
rclavicle -3.04141e-014 -1.86858e-014
rhumerus -60.893 -4.00429 -81.705
rradius 61.2371
rwrist -14.319
rhand -28.6775 -1.22014
rfingers 7.12502
rthumb -2.04021 -31.1901
lclavicle -3.04141e-014 -1.86858e-014
lhumerus -29.8703 -9.08723 95.443
lradius 103.814
lwrist 12.0153
lhand -18.6878 -5.17826
lfingers 7.12502
lthumb 7.6065 24.665
rfemur -68.8501 -13.77 14.8418
rtibia 96.6762
rfoot -17.125 -6.8543
rtoes -39.5165
lfemur -3.83856 -4.97214 -30.219
ltibia 44.691
lfoot -27.8531 -3.92165
ltoes -26.1764
323
root 1.0253 15.605 -23.6043 -160.974 -0.521364 -187.939
lowerback 14.3331 -2.64384 -5.51286
upperback -0.643998 -4.48657 0.515291
thorax -8.28057 -1.94792 4.60693
lowerneck -16.9185 0.772084 -0.0677321
upperneck 4.12436 1.09739 1.49427
head 3.92477 0.707115 0.568059
rclavicle 2.28602e-014 -3.97569e-015
rhumerus -62.9981 -3.41418 -81.8554
rradius 63.2234
rwrist -14.6044
rhand -29.1685 -0.323795
rfingers 7.12502
rthumb -2.51448 -30.2887
lclavicle 2.28602e-014 -3.97569e-015
lhumerus -27.9528 -8.72935 95.313
lradius 106.668
lwrist 12.8158
lhand -19.1474 -5.19447
lfingers 7.12502
lthumb 7.1629 24.6643
rfemur -70.9315 -13.7634 15.2913
rtibia 95.934
rfoot -17.4697 -6.71269
rtoes -40.1543
lfemur -2.70514 -5.14818 -30.1359
ltibia 43.3423
lfoot -27.4092 -4.33211
ltoes -26.3959
324
root 1.03998 15.5695 -23.8395 -160.605 -0.683521 -188.001
lowerback 14.5399 -2.72753 -5.54127
upperback -0.725588 -4.60692 0.607969
thorax -8.46324 -1.99109 4.76515
lowerneck -17.1304 0.759023 -0.0896709
upperneck 4.22845 1.09043 1.40731
head 3.99007 0.699117 0.545897
rclavicle 1.39149e-015 5.96354e-015
rhumerus -65.2116 -2.73124 -82.0783
rradius 65.4499
rwrist -14.7766
rhand -29.5163 0.639375
rfingers 7.12502
rthumb -2.85036 -29.3213
lclavicle 1.39149e-015 5.96354e-015
lhumerus -26.0648 -8.42937 95.1914
lradius 109.567
lwrist 13.6645
lhand -19.6181 -5.30078
lfingers 7.12502
lthumb 6.70854 24.5729
rfemur -72.8626 -13.7331 15.7489
rtibia 94.996
rfoot -17.7837 -6.48344
rtoes -40.9202
lfemur -1.57579 -5.37358 -30.0353
ltibia 41.8835
lfoot -26.7767 -4.78435
ltoes -26.5552
325
root 1.05476 15.5403 -24.0849 -160.178 -0.866857 -188.06
lowerback 14.7092 -2.84138 -5.53476
upperback -0.837802 -4.75646 0.717028
thorax -8.65554 -2.04729 4.92691
lowerneck -17.3061 0.781373 -0.0803489
upperneck 4.32102 1.1284 1.26759
head 4.04629 0.70994 0.505672
rclavicle 1.0138e-014 -3.65764e-014
rhumerus -67.4664 -1.99201 -82.361
rradius 67.8119
rwrist -14.8791
rhand -29.6996 1.64544
rfingers 7.12502
rthumb -3.02731 -28.3128
lclavicle 1.0138e-014 -3.65764e-014
lhumerus -24.2456 -8.2046 95.0395
lradius 112.481
lwrist 14.5908
lhand -20.1014 -5.50583
lfingers 7.12502
lthumb 6.2419 24.3822
rfemur -74.6113 -13.693 16.2029
rtibia 93.9188
rfoot -18.0754 -6.17205
rtoes -41.841
lfemur -0.492379 -5.66259 -29.9289
ltibia 40.4076
lfoot -25.9378 -5.24248
ltoes -26.6936
326
root 1.07033 15.518 -24.339 -159.7 -1.05902 -188.102
lowerback 14.8605 -2.98173 -5.49391
upperback -0.976763 -4.93144 0.845192
thorax -8.86453 -2.11457 5.09633
lowerneck -17.4526 0.840938 -0.0400624
upperneck 4.40723 1.21286 1.08474
head 4.09619 0.740961 0.450715
rclavicle 1.41137e-014 8.34896e-015
rhumerus -69.6926 -1.22482 -82.6921
rradius 70.1926
rwrist -14.958
rhand -29.7365 2.69122
rfingers 7.12502
rthumb -3.06296 -27.2665
lclavicle 1.41137e-014 8.34896e-015
lhumerus -22.5335 -8.05979 94.822
lradius 115.374
lwrist 15.5962
lhand -20.5781 -5.82499
lfingers 7.12502
lthumb 5.7817 24.0761
rfemur -76.1577 -13.6149 16.6613
rtibia 92.7375
rfoot -18.3079 -5.77876
rtoes -42.8923
lfemur 0.523004 -6.00339 -29.8039
ltibia 38.9375
lfoot -24.8225 -5.68777
ltoes -26.8674
327
root 1.08656 15.4914 -24.5984 -159.186 -1.24888 -188.119
lowerback 14.9895 -3.14856 -5.41458
upperback -1.13333 -5.1312 0.989457
thorax -9.07867 -2.19391 5.26722
lowerneck -17.5673 0.937959 0.0251216
upperneck 4.48944 1.3438 0.875097
head 4.14029 0.793047 0.387149
rclavicle -5.1684e-015 -2.78299e-015
rhumerus -71.8261 -0.45193 -83.059
rradius 72.4849
rwrist -15.0316
rhand -29.6575 3.73933
rfingers 7.12502
rthumb -2.98667 -26.2195
lclavicle -5.1684e-015 -2.78299e-015
lhumerus -20.9823 -7.99301 94.5125
lradius 118.205
lwrist 16.6313
lhand -21.0373 -6.27214
lfingers 7.12502
lthumb 5.33831 23.6406
rfemur -77.5624 -13.49 17.1231
rtibia 91.5711
rfoot -18.4087 -5.31615
rtoes -44.0028
lfemur 1.4366 -6.38952 -29.6702
ltibia 37.5643
lfoot -23.4016 -6.08999
ltoes -27.0891
328
root 1.10271 15.4835 -24.8706 -158.654 -1.42163 -188.12
lowerback 15.1119 -3.33157 -5.30794
upperback -1.29729 -5.34587 1.14273
thorax -9.29676 -2.28087 5.43718
lowerneck -17.6645 1.06216 0.103249
upperneck 4.57345 1.50867 0.656383
head 4.1827 0.861046 0.321537
rclavicle 3.85642e-014 2.38542e-014
rhumerus -73.8091 0.284359 -83.434
rradius 74.6037
rwrist -15.0876
rhand -29.5018 4.75473
rfingers 7.12502
rthumb -2.83635 -25.2062
lclavicle 3.85642e-014 2.38542e-014
lhumerus -19.6334 -8.01698 94.102
lradius 120.927
lwrist 17.6255
lhand -21.4394 -6.83444
lfingers 7.12502
lthumb 4.95006 23.0877
rfemur -78.6186 -13.3355 17.572
rtibia 90.3607
rfoot -18.4105 -4.80765
rtoes -45.0869
lfemur 2.24862 -6.80809 -29.5429
ltibia 36.2844
lfoot -21.6045 -6.45021
ltoes -27.353
329
root 1.11832 15.4825 -25.1516 -158.116 -1.5586 -188.11
lowerback 15.2305 -3.52159 -5.17855
upperback -1.45883 -5.56506 1.29737
thorax -9.51148 -2.3713 5.59819
lowerneck -17.7494 1.20189 0.174894
upperneck 4.65426 1.6947 0.450497
head 4.22258 0.939886 0.262783
rclavicle -6.69904e-014 -1.59028e-014
rhumerus -75.5914 0.952064 -83.7898
rradius 76.4882
rwrist -15.096
rhand -29.3079 5.69371
rfingers 7.12502
rthumb -2.64912 -24.2696
lclavicle -6.69904e-014 -1.59028e-014
lhumerus -18.5262 -8.13058 93.5958
lradius 123.499
lwrist 18.5002
lhand -21.7218 -7.46683
lfingers 7.12502
lthumb 4.67736 22.4615
rfemur -79.4015 -13.1532 18.0062
rtibia 89.2248
rfoot -18.2617 -4.26199
rtoes -46.0753
lfemur 2.93613 -7.24021 -29.4415
ltibia 35.1573
lfoot -19.4136 -6.77017
ltoes -27.6361
